<svg width="24" height="18" viewBox="0 0 24 18" fill="none" xmlns="http://www.w3.org/2000/svg">
<path d="M4.13801 0.500366C2.46551 0.502305 1.3594 0.638394 1.3594 0.638394C1.3594 0.638394 7.47461 0.343517 12.3734 2.33636C12.5399 3.08479 13.0409 4.33126 13.3108 4.93037C12.5387 5.46679 11.668 5.97128 11.5325 7.7601C11.3969 9.54887 12.9275 11.1222 14.8255 11.1708C16.6278 11.2671 17.8731 11.2809 19.3824 12.0673C20.8231 12.8677 22.0044 15.3066 22.1213 17.5001C22.2476 15.8726 21.6397 12.3728 18.8033 11.3099C22.7669 12.0068 23.1163 14.9587 23.1165 14.9599C23.1165 14.9599 23.4119 11.5518 18.0828 10.766C17.4073 10.6664 16.5531 10.5897 15.6891 10.5875C11.4179 10.6443 11.2621 5.63756 14.4807 5.38478C15.8146 5.27418 17.4073 5.99723 18.9643 6.72581C18.9585 6.92013 18.9666 7.09278 19.0936 7.25237C19.2207 7.41184 19.7085 7.58586 19.8645 7.67575C20.0204 7.76564 20.5198 8.08475 20.8258 8.48503C20.8923 8.3603 21.4465 7.99777 21.4465 7.99777C21.4465 7.99777 21.3137 8.00063 21.0048 7.88467C20.6959 7.76866 20.3293 7.41766 20.3206 7.39735C20.312 7.37705 20.3061 7.34511 20.3783 7.33062C20.4332 7.28425 20.3091 7.13339 20.2542 7.07835C20.1993 7.0232 19.8327 6.39677 19.8241 6.38228C19.8154 6.36774 19.8125 6.35319 19.7866 6.3358C19.7057 6.30967 19.3506 6.3735 19.3506 6.3735C19.3506 6.3735 18.8045 6.104 18.6162 5.52292C18.619 5.62473 18.5226 5.73589 18.6162 5.96974C18.3315 5.84871 18.0869 5.64224 17.894 5.13216C17.7792 5.42225 17.894 5.60676 17.894 5.60676C17.894 5.60676 17.2236 5.41848 17.1164 4.79713C16.9986 5.07604 17.1164 5.24384 17.1164 5.24384C17.1164 5.24384 16.0231 4.67074 14.2069 4.66241C12.9908 4.55034 12.7377 2.40093 12.8504 2.03909C12.8504 2.03909 11.0964 1.11025 7.64377 0.699878C6.34903 0.546052 5.1416 0.49894 4.13801 0.500081V0.500366ZM8.18394 2.35524C7.65773 2.35923 7.09293 2.37897 6.49952 2.42135C3.33485 2.64738 0.139648 3.76038 0.139648 3.76038C0.139648 3.76038 6.67776 2.10748 12.1606 3.0776H12.1607L12.0181 2.61527C12.0181 2.61527 10.4643 2.35518 8.18417 2.35518L8.18394 2.35524ZM12.0605 3.33986C11.5071 3.33752 9.78883 3.40744 7.20356 4.22027C3.96096 5.23973 2.12191 6.6848 2.12191 6.6848C2.12191 6.6848 6.95482 3.97336 12.4099 3.8193L12.2538 3.34488C12.2538 3.34488 12.1881 3.34048 12.0604 3.33991L12.0605 3.33986ZM15.6117 3.33187C17.1091 3.94353 18.4124 4.7539 19.4242 5.87084L19.4243 5.87095L19.6673 5.85498C19.6673 5.85498 18.2755 4.15833 15.6117 3.33187ZM19.8498 6.85283C19.8985 6.8627 19.9904 7.04424 20.0748 7.17394C20.0822 7.1845 20.0898 7.19567 20.0969 7.20457L20.0972 7.20668C20.1068 7.22037 20.1164 7.23457 20.1255 7.24592C20.13 7.27307 20.1378 7.28961 20.0746 7.27655C20.0693 7.2486 20.0602 7.24062 20.0602 7.24062C20.0602 7.24062 19.9077 7.14948 19.8609 7.0848C19.8141 7.02017 19.8059 6.90713 19.8287 6.86424C19.8342 6.85454 19.8414 6.85112 19.8497 6.85283H19.8498Z" fill="white"/>
</svg>
