<svg width="27" height="27" viewBox="0 0 27 27" fill="none" xmlns="http://www.w3.org/2000/svg">
<path d="M6.54478 9.49512C9.87498 7.47003 12.2816 7.45728 14.0672 7.51464L14.3123 7.5229C16.4474 7.59744 18.7232 8.32267 19.0352 8.42742L19.0475 7.72838C19.0463 7.71944 19.0499 7.71054 19.0569 7.70481C19.0616 7.70099 19.0674 7.69894 19.0733 7.69884L19.2166 7.71907C19.8447 7.81282 22.4261 8.24277 23.5828 8.9089C23.6916 8.97558 23.7906 9.05655 23.8771 9.14951L23.9193 9.19697C24.2578 9.54146 24.6616 10.9033 24.7798 11.3062C24.8084 11.4069 24.6881 11.4855 24.6554 11.5076L24.5372 11.5885C24.1924 11.8191 23.5498 12.1934 22.7569 12.1221C21.9412 12.0516 20.8767 11.5922 19.6042 10.7643L19.9713 11.6225L19.9896 11.6426L20.1652 11.7293C20.6759 11.9776 22.0792 12.6271 22.8303 12.6116C23.4209 12.5728 23.9953 12.407 24.5136 12.1264L24.614 12.0707C24.6475 12.054 24.7565 12.0094 24.7166 12.1583L24.6614 12.366C24.6534 12.3947 24.6455 12.4219 24.6379 12.4451L24.6269 12.4766L24.6024 12.5391C24.5787 12.6255 24.5331 12.7045 24.4699 12.7687C24.1914 12.9722 23.8843 13.1344 23.5583 13.2502C22.7074 13.5883 21.7957 13.7521 20.8787 13.7317C20.554 13.7246 20.237 13.6929 19.9498 13.6608L19.6693 13.6297C18.7818 13.5345 18.1502 13.5101 18.0115 14.332C17.9149 14.9026 18.2052 15.5767 18.6262 16.1888L18.6702 16.2518H16.9776L16.9317 16.1694C16.4037 15.1975 16.1153 13.8989 14.1961 13.8989C12.4388 13.8989 12.4994 15.5642 12.6929 16.2062L12.7074 16.2518H11.1086C10.45 13.8828 8.69824 12.8634 7.54198 12.662L7.46251 12.6491C6.63489 12.5234 5.22085 12.5533 4.46066 13.9714C4.13746 14.646 4.16333 15.4331 4.53016 16.0856C4.89698 16.738 5.55975 17.1757 6.31027 17.2611C7.07907 17.3437 7.65618 17.1664 7.98246 16.7514C8.309 16.3348 8.36902 15.7716 8.13744 15.297C7.93966 14.8356 7.49545 14.5238 6.98934 14.4911C6.68898 14.4426 6.38502 14.5545 6.18995 14.7853C6.14288 14.8589 6.11342 14.9419 6.10353 15.028L6.10022 15.0713L6.10111 15.104C6.11497 15.3306 6.2879 15.5193 6.51827 15.5528C6.5854 15.5515 6.65224 15.5443 6.718 15.5314L6.78338 15.5165L6.85067 15.4944L6.89757 15.4803H6.9302C7.16013 15.4345 7.39064 15.5562 7.47973 15.7706C7.56412 15.9737 7.49911 16.2057 7.32521 16.3376L7.29523 16.3586H7.28095L7.25852 16.3727C7.19496 16.4123 7.12639 16.4435 7.0546 16.4654C6.87501 16.5239 6.68698 16.5532 6.49788 16.552C5.69569 16.523 5.05818 15.8764 5.05001 15.0834C5.04932 14.5356 5.3335 14.0259 5.80249 13.7337C6.5315 13.3092 7.43621 13.3177 8.15544 13.751L8.21494 13.7881C9.18753 14.3906 9.63647 15.5582 9.3141 16.6467C8.88993 17.932 7.72347 18.6229 6.17772 18.4819C5.08826 18.3896 4.09427 17.8309 3.45734 16.9529C3.19247 16.58 2.99768 16.1631 2.88227 15.722C2.70389 14.9032 2.76977 14.0509 3.07192 13.2683C3.64987 11.8508 4.74588 10.6219 6.33141 9.62663L6.54478 9.49512ZM23.4244 9.39008C23.0617 9.0064 22.5007 8.87646 22.0032 9.06089C21.5056 9.24532 21.1697 9.70777 21.152 10.2324C21.1302 10.9467 21.6955 11.5448 22.4184 11.5721C22.9495 11.5906 23.4394 11.291 23.6597 10.8133C23.88 10.3355 23.7871 9.77376 23.4244 9.39008ZM22.4529 9.35565L22.4959 9.35612C22.8237 9.36692 23.1208 9.54968 23.2753 9.83556C23.4298 10.1214 23.4181 10.467 23.2447 10.7421C23.0713 11.0172 22.7625 11.18 22.4347 11.1692C22.1909 11.1603 21.9607 11.0558 21.795 10.8789C21.6293 10.702 21.5418 10.4672 21.5517 10.2264C21.5689 9.74285 21.9682 9.36148 22.4529 9.35565ZM22.6386 9.81543L22.6468 9.81745C22.4245 9.81745 22.2308 9.9363 22.2308 10.0834C22.2308 10.2304 22.4123 10.3513 22.6386 10.3513C22.865 10.3513 23.0465 10.2324 23.0465 10.0834C23.0465 9.94214 22.8817 9.82803 22.6737 9.81641L22.6386 9.81543Z" fill="white"/>
</svg>
