<svg width="35" height="35" viewBox="0 0 35 35" fill="none" xmlns="http://www.w3.org/2000/svg">
<g clip-path="url(#clip0_2_134)">
<path d="M35 17.5642C35 7.86351 27.1652 0 17.5 0C7.83477 0 0 7.86351 0 17.5642C0 25.8018 5.6502 32.7129 13.2725 34.6115V22.9314H9.66385V17.5642H13.2725V15.2515C13.2725 9.27279 15.968 6.50185 21.8155 6.50185C22.9247 6.50185 24.8376 6.72063 25.6201 6.93872V11.8042C25.2069 11.7608 24.4897 11.7387 23.5985 11.7387C20.7291 11.7387 19.6199 12.8298 19.6199 15.6663V17.5642H25.3361L24.3542 22.9314H19.6199V35C28.2854 33.9496 35 26.5443 35 17.5642Z" fill="#D9D9D9"/>
</g>
<defs>
<clipPath id="clip0_2_134">
<rect width="35" height="35" fill="white"/>
</clipPath>
</defs>
</svg>
