<svg width="20" height="20" viewBox="0 0 20 20" fill="none" xmlns="http://www.w3.org/2000/svg">
<path d="M2.00529 8.00593C0.990227 8.00593 0.166992 8.79908 0.166992 9.77891C0.166992 10.7587 0.989367 11.5511 2.00529 11.5511C3.02122 11.5511 3.84359 10.7571 3.84359 9.77808C3.84359 8.79908 3.02036 8.00593 2.00529 8.00593ZM15.1254 16.0619C14.2463 16.5597 13.9452 17.6349 14.4527 18.482C14.9603 19.3291 16.0829 19.6203 16.962 19.1308C17.8412 18.6413 18.1422 17.5586 17.6347 16.7107C17.1272 15.8628 16.0037 15.5741 15.1254 16.0619ZM5.99674 9.77808C5.99615 8.94717 6.20328 8.12837 6.60055 7.39108C6.99783 6.65379 7.57355 6.01974 8.27891 5.54267L6.9361 3.37311C5.30371 4.42378 4.12869 6.01649 3.63456 7.84829C4.21607 8.3046 4.58597 8.9982 4.58597 9.77808C4.58597 10.558 4.21435 11.2516 3.63456 11.7079C4.13091 13.5638 5.32748 15.1476 6.9361 16.1839L8.27977 14.0135C7.57441 13.5364 6.99869 12.9024 6.60141 12.1651C6.20414 11.4278 5.99615 10.609 5.99674 9.77808ZM11.3645 4.601C12.7057 4.6011 13.9983 5.08544 14.9878 5.95869C15.9773 6.83194 16.592 8.03081 16.7108 9.31928L19.3294 9.28194C19.2047 7.39218 18.36 5.61359 16.9577 4.28822C16.2592 4.54293 15.4523 4.50393 14.7555 4.11565C14.4236 3.93146 14.1386 3.67811 13.9211 3.3741C13.7037 3.07009 13.5594 2.72309 13.4988 2.35843C12.8269 2.1784 12.1043 2.07884 11.3645 2.07884C10.094 2.07884 8.89311 2.36673 7.82643 2.87531L9.10301 5.08221C9.79119 4.77357 10.5568 4.601 11.3637 4.601H11.3645ZM11.3645 14.9552C10.5559 14.9552 9.79033 14.7809 9.10387 14.4739L7.82729 16.6808C8.89397 17.1903 10.0948 17.4773 11.3654 17.4773C12.0861 17.4771 12.8034 17.3828 13.4979 17.1969C13.6183 16.485 14.057 15.8296 14.7538 15.4397C15.4506 15.0497 16.2592 15.0132 16.956 15.2679C18.3582 13.9426 19.2029 12.164 19.3276 10.2742L16.7083 10.2369C16.5894 11.5249 15.9751 12.7234 14.9862 13.5966C13.9973 14.4698 12.7053 14.9544 11.3645 14.9552ZM15.1254 3.49507C16.0046 3.99286 17.128 3.69419 17.6347 2.84793C18.1414 2.00168 17.8412 0.916487 16.9637 0.426988C16.0863 -0.0625107 14.9611 0.22787 14.4536 1.07661C13.9461 1.92535 14.2471 3.00723 15.1263 3.49673L15.1254 3.49507Z" fill="white"/>
</svg>
