<svg xmlns="http://www.w3.org/2000/svg" width="12.306122390591373" height="20.97959179294353" fill="none" style=""><rect id="backgroundrect" width="100%" height="100%" x="0" y="0" fill="none" stroke="none" style="" class=""/>

<g class="currentLayer" style=""><title>Layer 1</title><path d="M0.4897975291728969,6.8214287021636935 C0.4897975291728969,5.088128702163694 1.0473975291728976,3.6131287021636993 2.1626975291728954,2.3964287021636963 C3.2779975291729,1.1798287021636966 4.629997529172897,0.5714287021636935 6.2188975291729,0.5714287021636935 C7.807797529172895,0.5714287021636935 9.159897529172895,1.1798287021636966 10.2751975291729,2.3964287021636963 C11.390497529172897,3.6131287021636993 11.948097529172898,5.088128702163694 11.948097529172898,6.8214287021636935 L11.948097529172898,16.071428702163693 C11.948097529172898,17.321428702163693 11.547097529172895,18.383928702163693 10.744997529172899,19.258928702163693 C9.942897529172896,20.133928702163693 8.9688975291729,20.571428702163693 7.823097529172898,20.571428702163693 C6.677297529172897,20.571428702163693 5.7032975291729,20.133928702163693 4.901197529172897,19.258928702163693 C4.099097529172894,18.383928702163693 3.698097529172898,17.321428702163693 3.698097529172898,16.071428702163693 L3.698097529172898,7.3214287021636935 C3.698097529172898,6.554828702163697 3.942497529172897,5.904828702163699 4.431397529172898,5.371428702163698 C4.920297529172899,4.838128702163694 5.516197529172899,4.5714287021636935 6.2188975291729,4.5714287021636935 C6.921697529172896,4.5714287021636935 7.5174975291729,4.838128702163694 8.0063975291729,5.371428702163698 C8.495297529172895,5.904828702163699 8.739797529172897,6.554828702163697 8.739797529172897,7.3214287021636935 L8.739797529172897,16.571428702163693 L6.906397529172899,16.571428702163693 L6.906397529172899,7.3214287021636935 C6.906397529172899,7.104828702163693 6.841497529172898,6.925628702163699 6.711597529172899,6.783928702163699 C6.581797529172896,6.642328702163695 6.417497529172899,6.5714287021636935 6.2188975291729,6.5714287021636935 C6.0202975291729,6.5714287021636935 5.856097529172899,6.642328702163695 5.7261975291729,6.783928702163699 C5.596397529172897,6.925628702163699 5.5313975291729,7.104828702163693 5.5313975291729,7.3214287021636935 L5.5313975291729,16.071428702163693 C5.546697529172896,16.771428702163696 5.772097529172896,17.3631287021637 6.2074975291728975,17.8464287021637 C6.642897529172899,18.329828702163695 7.181397529172898,18.571428702163693 7.823097529172898,18.571428702163693 C8.464797529172898,18.571428702163693 9.007097529172896,18.329828702163695 9.450197529172897,17.8464287021637 C9.893197529172895,17.3631287021637 10.114797529172897,16.771428702163696 10.114797529172897,16.071428702163693 L10.114797529172897,6.8214287021636935 C10.129997529172897,5.638128702163698 9.755697529172899,4.6339287021636935 8.9917975291729,3.8089287021636977 C8.227997529172896,2.983928702163695 7.303697529172901,2.5714287021636935 6.2188975291729,2.5714287021636935 C5.149497529172898,2.5714287021636935 4.240497529172899,2.983928702163695 3.4917975291728993,3.8089287021636977 C2.743197529172896,4.6339287021636935 2.353697529172898,5.638128702163698 2.323097529172898,6.8214287021636935 L2.323097529172898,16.571428702163693 L0.4897975291728969,16.571428702163693 L0.4897975291728969,6.8214287021636935 z" fill="#1D2142" id="svg_1" class=""/></g></svg>