<svg width="35" height="35" viewBox="0 0 35 35" fill="none" xmlns="http://www.w3.org/2000/svg">
<path d="M32.9 17.8646C32.9 16.7271 32.7979 15.6333 32.6083 14.5833H17.5V20.7958H26.1333C25.7542 22.7938 24.6167 24.4854 22.9104 25.6229V29.6625H28.1167C31.15 26.8625 32.9 22.75 32.9 17.8646Z" fill="#4285F4"/>
<path d="M17.5 33.5417C21.8313 33.5417 25.4625 32.1125 28.1167 29.6625L22.9104 25.6229C21.4813 26.5854 19.6584 27.1687 17.5 27.1687C13.3292 27.1687 9.78545 24.3542 8.5167 20.5625H3.1792V24.7042C5.81878 29.9396 11.2292 33.5417 17.5 33.5417Z" fill="#34A853"/>
<path d="M8.51671 20.5479C8.19587 19.5854 8.00629 18.5646 8.00629 17.5C8.00629 16.4354 8.19587 15.4146 8.51671 14.4521V10.3104H3.17921C2.08546 12.4688 1.45837 14.9042 1.45837 17.5C1.45837 20.0958 2.08546 22.5313 3.17921 24.6896L7.33546 21.4521L8.51671 20.5479Z" fill="#FBBC05"/>
<path d="M17.5 7.84584C19.8625 7.84584 21.9625 8.66251 23.6396 10.2375L28.2334 5.64376C25.448 3.04793 21.8313 1.45834 17.5 1.45834C11.2292 1.45834 5.81878 5.06043 3.1792 10.3104L8.5167 14.4521C9.78545 10.6604 13.3292 7.84584 17.5 7.84584Z" fill="#EA4335"/>
</svg>
