<svg width="243" height="138" viewBox="0 0 243 138" fill="none" xmlns="http://www.w3.org/2000/svg">
<path fill-rule="evenodd" clip-rule="evenodd" d="M130.005 0C129.742 2.20171 129.607 4.4427 129.607 6.71533C129.607 37.6217 154.619 62.6761 185.472 62.6761C216.326 62.6761 241.337 37.6217 241.337 6.71533C241.337 4.4427 241.201 2.20171 240.939 0H209.608C210.199 2.13735 210.515 4.38936 210.515 6.71531C210.515 20.5699 199.302 31.8011 185.472 31.8011C171.641 31.8011 160.429 20.5699 160.429 6.71531C160.429 4.38936 160.745 2.13735 161.337 0H130.005Z" fill="white"/>
<path fill-rule="evenodd" clip-rule="evenodd" d="M0.398097 0C0.13524 2.20171 0 4.4427 0 6.71533C0 37.6217 25.0116 62.6761 55.8651 62.6761C86.7185 62.6761 111.73 37.6217 111.73 6.71533C111.73 4.4427 111.595 2.20171 111.332 0H80.0006C80.592 2.13735 80.9081 4.38936 80.9081 6.71531C80.9081 20.5699 69.6958 31.8011 55.8651 31.8011C42.0342 31.8011 30.8222 20.5699 30.8222 6.71531C30.8222 4.38936 31.1381 2.13735 31.7295 0H0.398097Z" fill="white"/>
<path fill-rule="evenodd" clip-rule="evenodd" d="M122.457 131.151C135.881 129.235 153.073 108.416 153.073 108.416C143.425 110.315 133.143 111.431 122.457 111.631V131.151ZM122.457 105.88C136.757 105.605 150.237 103.638 162.322 100.357L176.429 88.0664C169.507 80.095 160.959 73.7035 151.361 69.3235C142.269 65.174 132.434 62.9211 122.457 62.6952V105.88Z" fill="#F3F3F3"/>
<path fill-rule="evenodd" clip-rule="evenodd" d="M122.457 131.158C109.031 129.242 91.8374 108.42 91.8374 108.42C101.486 110.32 111.77 111.436 122.457 111.635V131.158ZM122.457 105.883C108.155 105.608 94.6737 103.642 82.5876 100.361L68.48 88.0683C75.4023 80.096 83.951 73.7038 93.5496 69.3234C102.643 65.1734 112.478 62.9203 122.457 62.6943V105.883Z" fill="white"/>
</svg>
