<svg width="1280" height="582" viewBox="0 0 1280 582" fill="none" xmlns="http://www.w3.org/2000/svg">
<path opacity="0.978" fill-rule="evenodd" clip-rule="evenodd" d="M-181 18.5691C-130.944 6.00069 -80.5977 4.24847 -29.96 13.3123C22.4461 25.8327 72.792 45.3274 121.08 71.794C149.281 87.7167 177.601 103.269 206.04 118.448C218.252 126.124 230.839 133.134 243.8 139.475C247.713 141.302 251.647 143.273 255.6 145.389C251.47 144.075 247.34 142.76 243.8 141.446C236.829 138.858 229.64 136.409 222.56 134.218C185.563 118.213 148.591 101.785 111.64 84.9359C100.717 80.3704 89.7038 76.2083 78.6 72.451C-6.65265 35.1082 -93.1862 31.1657 -181 60.6233V68.5085C-137.243 52.8893 -92.4031 46.5365 -46.48 49.4527C-5.24137 53.0496 34.8786 62.4684 73.88 77.7078C120.55 98.2198 167.357 118.37 214.3 138.161C244.314 151.056 274.994 161.569 306.34 169.701C310.311 170.542 314.244 171.639 318.14 172.987C314.01 172.33 309.88 171.673 306.34 171.016C259.325 163.948 213.305 152.12 168.28 135.532C129.394 118.908 89.6684 104.889 49.1 93.4782C7.79409 81.1261 -34.293 77.1835 -77.16 81.6504C-93.8879 82.9304 -110.408 85.777 -126.72 90.1927C-145.035 95.4613 -163.129 101.375 -181 107.934V117.134C-146.564 102.507 -111.164 92.8697 -74.8 88.2214C-35.0057 85.6442 4.32725 89.1492 43.2 98.7349C83.3212 110.9 123.048 124.919 162.38 140.789C231.376 168.429 302.57 182.885 375.96 184.158C379.131 183.942 382.278 184.161 385.4 184.815C380.72 185.903 376 186.56 371.24 186.786C306.405 191.786 242.685 184.558 180.08 165.102C142.977 152.253 105.61 140.425 67.98 129.618C-17.7069 106.504 -100.701 115.047 -181 155.245V163.13C-160.742 154.635 -140.288 146.531 -119.64 138.818C-59.2747 121.451 1.29819 120.574 62.08 136.189C106.002 148.698 149.662 162.279 193.06 176.929C273.611 199.497 354.639 201.907 436.14 184.158L449.12 182.186L438.5 185.472C365.264 210.532 290.924 215.569 215.48 200.585C175.185 190.46 135.065 179.509 95.12 167.73C83.8002 164.727 72.3932 162.317 60.9 160.502C7.45661 148.912 -45.6434 150.664 -98.4 165.759C-127.208 173.97 -154.741 185.798 -181 201.242V209.127C-153.586 193.99 -125.266 181.725 -96.04 172.33C-81.1741 169.063 -66.2274 166.215 -51.2 163.787C-14.4878 159.084 22.0922 160.18 58.54 167.073C110.855 180.653 163.169 194.452 215.48 208.47C283.762 222.138 351.415 219.072 418.44 199.271C443.728 190.822 469.065 183.002 494.449 175.811C494.687 175.728 494.919 175.661 495.14 175.615C494.91 175.68 494.679 175.746 494.449 175.811C492.154 176.608 489.24 178.901 489.24 178.901C467.371 189.104 445.345 198.961 423.16 208.47C355.424 234.177 286.197 240.748 215.48 228.183C183.498 220.921 151.638 213.036 119.9 204.528C14.6157 173.188 -85.6849 186.549 -181 244.61V253.81C-87.9871 195.425 10.3464 181.189 114 211.098C148.093 220.094 182.313 228.417 216.66 236.068C262.286 243.934 307.912 243.934 353.54 236.068C402.64 225.944 449.447 208.641 493.96 184.158C511.472 175.759 529.172 167.873 547.06 160.502C506.286 188.467 463.806 212.997 419.62 234.097C354.513 260.382 287.648 268.048 219.02 257.095C182.836 249.211 146.649 241.326 110.46 233.44C88.9616 229.187 67.3286 226.121 45.56 224.24C-1.62939 220.57 -47.6494 226.923 -92.5 243.296C-123.656 254.297 -153.156 269.191 -181 287.979V297.178C-152.309 277.476 -122.022 261.705 -90.14 249.867C-67.3114 242.526 -44.1047 237.05 -20.52 233.44C23.4728 229.048 67.1328 231.676 110.46 241.325C146.649 249.211 182.836 257.097 219.02 264.98C289.652 276.435 358.092 267.893 424.34 239.354C441.323 232.304 457.843 224.2 473.9 215.041C500.123 199.348 526.083 183.358 551.78 167.073C566.913 158.428 582.253 150.104 597.8 142.103C599.211 142.558 599.211 143.215 597.8 144.075C595.341 144.991 593.374 146.524 591.9 148.674C551.586 177.558 511.072 206.25 470.36 234.754C435.125 255.928 398.151 271.479 359.44 281.408C312.872 291.664 266.065 293.197 219.02 286.007C180.184 277.883 141.244 270.436 102.2 263.666C78.8997 260.184 55.4968 258.212 31.99 257.752C3.22749 257.537 -24.8966 261.479 -52.38 269.58C-98.2314 282.069 -141.105 302.221 -181 330.033V339.232C-140.826 310.29 -97.5591 289.263 -51.2 276.151C2.45105 263.336 56.3381 262.242 110.46 272.866C146.699 279.536 182.886 286.545 219.02 293.893C268.769 301.83 317.936 299.421 366.52 286.665C418.115 273.697 465.708 250.699 509.3 217.669C539.868 194.774 570.548 172.213 601.34 149.988C615.946 140.541 630.892 131.779 646.18 123.705C628.635 136.762 611.722 150.78 595.44 165.759C578.162 179.752 561.248 194.208 544.7 209.127C537.649 214.359 530.962 220.053 524.64 226.212C484.664 258.111 441.397 283.081 394.84 301.121C341.987 319.075 288.101 324.55 233.18 317.548C194.674 310.693 156.128 304.122 117.54 297.835C69.3688 289.301 21.383 289.958 -26.42 299.807C-81.9296 312.985 -133.456 336.641 -181 370.773V379.972C-130.979 343.728 -76.6987 318.759 -18.16 305.063C30.2802 297.823 78.6602 298.481 126.98 307.035C162.755 313.31 198.548 319.443 234.36 325.433C292.145 332.908 348.392 326.119 403.1 305.063C449.415 288.43 491.502 263.46 529.36 230.154C530.535 230.267 531.518 229.828 532.31 228.84C544.19 230.635 556.187 231.731 568.3 232.126C611.24 233.682 654.114 232.587 696.92 228.84C723.516 234.215 750.262 238.158 777.16 240.668C791.497 251.757 807.427 257.453 824.95 257.752C829.817 270.53 835.127 283.015 840.88 295.207C833.8 300.901 826.72 306.597 819.64 312.291L816.69 316.891C816.743 316.757 813.15 324.776 813.15 324.776C811.518 328.966 811.322 333.127 812.56 337.261L804.89 343.175L797.22 349.089C788.027 356.923 782.521 367.217 780.7 379.972C766.173 389.368 756.143 402.947 750.61 420.712C736.496 430.73 726.269 444.311 719.93 461.452C704.012 473.49 692.999 489.7 686.89 510.078C684.58 523.811 687.332 536.078 695.15 546.875C706.478 559.649 720.048 568.191 735.86 572.502C785.38 586.18 834.547 585.085 883.36 569.216C900.96 564.946 918.267 559.47 935.28 552.789C982.265 534.071 1027.11 510.415 1069.8 481.822C1109.61 454.578 1149.73 427.855 1190.16 401.657C1241.49 369.388 1295.77 345.514 1353 330.033V322.148C1289.66 339.239 1229.87 366.18 1173.64 402.971C1135.14 428.799 1096.59 454.645 1058 480.508C1001.57 517.407 941.791 545.223 878.64 563.959C862.985 567.23 847.252 570.078 831.44 572.502C800.762 576.635 770.475 574.444 740.58 565.931C726.545 561.904 713.958 554.895 702.82 544.904C694.861 535.394 691.911 524.224 693.97 511.392C698.594 496.389 706.264 483.685 716.98 473.28C717.051 472.567 717.444 472.129 718.16 471.966C719.283 473.996 719.676 476.187 719.34 478.537C719.644 483.715 721.02 488.534 723.47 492.993C727.897 499.514 733.207 504.99 739.4 509.42C759.93 520.284 781.563 526.417 804.3 527.819C859.94 529.66 913.433 518.927 964.78 495.621C996.417 483.481 1027.1 468.805 1056.82 451.596C1097.53 426.521 1138.04 401.114 1178.36 375.373C1233.05 339.879 1291.27 314.252 1353 298.492V290.607C1293.14 305.747 1236.5 330.059 1183.08 363.545C1137.84 392.685 1092.21 421.159 1046.2 448.968C1016.1 465.52 985.419 480.195 954.16 492.993C938.482 498.155 922.75 503.192 906.96 508.106C879.288 516.076 851.165 520.238 822.59 520.591C793.215 521.673 765.485 514.882 739.4 500.221C732.508 494.75 727.983 487.522 725.83 478.537C723.671 469.774 726.228 463.64 733.5 460.138C740.724 455.456 748.197 451.075 755.92 446.996C761.589 453.001 767.882 458.038 774.8 462.109C790.017 468.536 805.751 472.478 822 473.937C877.439 476.424 930.933 466.567 982.48 444.368C1008.29 435.033 1033.47 423.862 1058 410.856C1103.55 385.057 1148.79 358.773 1193.7 332.004C1244.17 302.24 1297.27 280.119 1353 265.638V257.752C1290.86 273.736 1231.86 298.923 1176 333.318C1138.41 356.665 1100.26 379.006 1061.54 400.342C1033.93 414.453 1006 427.377 977.76 439.111C951.071 448.623 923.931 456.289 896.34 462.109C859.072 469.399 822.098 468.085 785.42 458.167C777.02 455.026 769.545 450.207 763 443.711C780.781 434.249 798.875 425.488 817.28 417.427C833.481 419.824 849.804 421.356 866.25 422.027C916.721 419.766 965.297 408.377 1011.98 387.858C1036.35 378.737 1060.34 368.442 1083.96 356.974C1137.92 327.367 1192.2 298.454 1246.8 270.237C1281.2 254.526 1316.6 242.48 1353 234.097V226.212C1300.03 238.501 1249.29 257.994 1200.78 284.693C1158.88 307.81 1116.79 330.589 1074.52 353.031C1053.3 362.871 1032.06 372.29 1010.8 381.287C996.26 386.313 981.706 391.352 967.14 396.4C925.118 410.409 882.245 415.885 838.52 412.827C836.037 413.22 833.677 412.782 831.44 411.513C831.586 410.715 831.979 410.278 832.62 410.199C863.425 399.641 893.712 387.813 923.48 374.716C936.683 369.996 949.663 364.52 962.42 358.288C982.678 352.958 1002.74 346.824 1022.6 339.889C1087.42 314.529 1150.74 285.18 1212.58 251.838C1257.59 228.781 1304.38 211.915 1353 201.242V193.357C1301.15 205.087 1251.19 223.267 1203.14 247.896C1164.49 267.936 1125.55 287.211 1086.32 305.72C1054.26 320.177 1021.62 332.661 988.38 343.175C986.61 343.832 984.84 343.832 984.84 343.832C984.84 343.832 985.807 342.737 987.2 341.861C993.167 338.109 998.673 333.729 1003.72 328.719C1015.59 318.016 1025.22 305.312 1032.63 290.607C1096.05 267.646 1158.41 241.581 1219.66 212.413C1262.74 192.642 1307.19 177.966 1353 168.387V160.502C1306.79 169.99 1261.95 184.666 1218.48 204.528C1158.88 232.864 1098.3 258.491 1036.76 281.408C1036.37 280.531 1035.97 279.656 1035.58 278.779C1037.83 266.146 1039.8 253.661 1041.48 241.325C1063.84 234.19 1086.07 226.523 1108.15 218.327C1159.09 198.833 1210.02 179.338 1260.96 159.845C1291.12 149.256 1321.8 141.152 1353 135.532V127.647C1324.22 132.612 1295.9 139.84 1268.04 149.331C1212.78 169.845 1157.72 190.872 1102.84 212.413C1081.77 219.654 1060.73 226.882 1039.71 234.097C1036.98 222.131 1033.63 210.303 1029.68 198.614C1105.62 174.071 1181.55 149.321 1257.42 124.362C1288.96 114.754 1320.82 107.088 1353 101.363V93.4781C1320.4 99.0477 1288.15 106.715 1256.24 116.477C1179.94 142.153 1103.44 166.905 1026.73 190.728C1021.11 179.529 1014.62 169.015 1007.26 159.188C1080.6 134.607 1154.54 112.485 1229.1 92.821C1269.98 81.9198 1311.28 73.8152 1353 68.5085V60.6233C1307.64 66.3414 1262.8 75.3212 1218.48 87.5643C1146.33 107.269 1074.54 128.516 1003.13 151.303C1001.69 150.827 1000.31 150.17 999 149.331C979.086 126.07 956.273 107.014 930.56 92.164C867.986 59.8361 803.48 54.3612 737.04 75.7365C707.946 88.3607 678.839 100.846 649.72 113.191C598.526 133.436 546.606 151.178 493.96 166.416C476.226 169.237 458.526 172.303 440.86 175.615C426.132 176.856 411.382 177.513 396.61 177.587C365.993 176.759 335.903 171.721 306.34 162.473C272.065 146.234 238.237 128.93 204.86 110.563C166.024 87.0097 126.298 65.3255 85.68 45.5101C50.6942 28.6516 14.5083 16.1668 -22.88 8.05556C-46.6169 2.1271 -70.8074 -0.501287 -95.45 0.170397C-124.478 -0.842715 -152.994 2.66185 -181 10.6839V18.5691ZM737.04 82.9646C803.115 62.2293 867.228 67.9237 929.38 100.049C944.028 109.315 958.188 119.61 971.86 130.933C995.579 151.638 1013.48 177.265 1025.55 207.813C1040.21 252.155 1032.15 290.267 1001.36 322.148C990.469 330.961 979.063 339.065 967.14 346.46C950.253 354.98 933.34 363.085 916.4 370.773C882.963 383.552 849.529 396.475 816.1 409.542C787.019 422.015 758.699 436.251 731.14 452.253C741.081 438.407 752.881 427.017 766.54 418.084C812.889 393.643 860.482 372.397 909.32 354.346C930.225 345.558 949.498 333.73 967.14 318.862C984.77 301.933 994.21 280.467 995.46 254.467C993.506 226.903 985.049 202.153 970.09 180.215C941.435 142.894 906.232 116.172 864.48 100.049C823.542 83.8372 781.455 78.5804 738.22 84.2788L729.96 86.2501L737.04 82.9646ZM693.38 103.335C746.01 85.1593 798.717 84.9411 851.5 102.678C883.269 113.796 911.982 131.1 937.64 154.588C959.619 173.807 975.155 198.12 984.25 227.526C992.537 257.149 987.423 283.433 968.91 306.378C947.528 326.725 923.338 341.838 896.34 351.717C869.337 361.938 842.59 372.889 816.1 384.572C798.568 392.449 781.655 401.429 765.36 411.513C763.77 412.207 762.196 412.426 760.64 412.17C764.476 405.264 769.196 399.131 774.8 393.771C784.516 385.955 794.743 379.164 805.48 373.401C833.901 359.768 862.614 346.845 891.62 334.633C904.186 328.516 915.986 321.069 927.02 312.291C948.943 292.389 956.22 267.201 948.85 236.725C941.2 212.431 928.81 191.623 911.68 174.301C894.971 158.642 876.878 145.281 857.4 134.218C805.34 106.886 750.667 96.5915 693.38 103.335ZM673.32 115.162C736.009 102.26 796.189 110.802 853.86 140.789C868.539 149.626 882.699 159.482 896.34 170.358C914.195 185.418 928.157 204.036 938.23 226.212C951.984 263.487 943.527 292.618 912.86 313.606C886.141 328.785 858.608 341.926 830.26 353.031C819.556 357.648 809.329 363.124 799.58 369.459C796.715 370.395 793.962 371.709 791.32 373.401L790.14 372.087C791.611 368.369 793.381 364.866 795.45 361.574C805.171 351.845 815.988 343.96 827.9 337.918C845.318 329.315 862.624 320.336 879.82 310.977C886.852 305.849 893.342 299.935 899.29 293.236C908.958 279.508 911.711 264.175 907.55 247.239C901.317 225.694 890.501 207.515 875.1 192.7C828.564 151.677 775.464 128.241 715.8 122.39C698.911 121.411 681.998 120.754 665.06 120.419C667.621 118.335 670.375 116.582 673.32 115.162ZM649.72 130.933C670.128 129.098 690.582 128.441 711.08 128.961C765.322 134.423 814.882 154.356 859.76 188.757C876.413 202.488 889.196 219.792 898.11 240.668C907.086 266.748 900.99 287.118 879.82 301.778C861.013 312.469 842.133 322.764 823.18 332.661C821.902 332.713 820.722 333.152 819.64 333.976C819.365 333.515 819.089 333.055 818.813 332.595L818.46 332.004C819.344 328.723 820.131 325.437 820.82 322.148C831.364 311.888 842.77 302.908 855.04 295.207C867.998 283.718 872.128 269.044 867.43 251.181C859.815 231.734 848.212 215.745 832.62 203.213C788.591 170.726 740.211 150.794 687.48 143.418C677.321 141.674 667.094 140.798 656.8 140.789C650.457 141.22 644.165 140.783 637.92 139.475C638.066 138.677 638.459 138.24 639.1 138.161C642.968 136.44 646.508 134.032 649.72 130.933ZM627.3 148.017C642.651 147.311 657.991 147.531 673.32 148.674C726.053 154.597 775.22 172.778 820.82 203.213C838.169 215.525 851.347 231.952 860.35 252.496C865.124 269.401 860.798 282.543 847.37 291.921C841.256 279.176 835.75 266.034 830.85 252.496C818.659 234.976 803.909 220.739 786.6 209.784C745.278 186.34 701.618 171.227 655.62 164.445C643.945 161.978 632.145 160.664 620.22 160.502C617.737 160.895 615.377 160.457 613.14 159.188C613.286 158.39 613.679 157.952 614.32 157.874C618.988 155.265 623.314 151.979 627.3 148.017ZM603.7 167.73C620.285 167.437 636.805 168.533 653.26 171.016C692.232 177.811 729.992 189.857 766.54 207.156C786.498 217.167 804.198 230.747 819.64 247.896C812.818 248.569 806.131 247.694 799.58 245.268C794.976 242.483 790.256 240.074 785.42 238.039C774.584 231.089 763.177 225.394 751.2 220.955C740.624 215.489 729.611 210.89 718.16 207.156C677.935 194.473 637.028 185.93 595.44 181.529C592.957 181.922 590.597 181.484 588.36 180.215C588.506 179.417 588.899 178.98 589.54 178.901C593.027 176.769 596.174 174.141 598.98 171.016C600.718 170.264 602.292 169.169 603.7 167.73ZM583.05 186.786C638.079 192.691 691.769 205.395 744.12 224.898C747.023 226.726 750.169 228.259 753.56 229.497C752.577 229.717 751.593 229.935 750.61 230.154C705.757 221.609 660.721 214.601 615.5 209.127C598.696 206.4 581.781 203.554 564.76 200.585C570.547 195.452 576.643 190.852 583.05 186.786ZM561.22 209.127C575.009 210.774 588.777 212.526 602.52 214.384C622.162 217.228 641.829 219.856 661.52 222.269C664.47 222.927 668.6 224.24 668.6 224.24C668.01 224.241 662.457 224.873 659.16 224.898C621.782 225.171 584.416 224.733 547.06 223.583L538.8 222.926L541.16 220.955L551.78 211.756C554.641 209.851 557.787 208.976 561.22 209.127Z" fill="white" fill-opacity="0.05"/>
</svg>
