<svg width="23" height="20" viewBox="0 0 23 20" fill="none" xmlns="http://www.w3.org/2000/svg">
<path d="M13.7047 16.3478C13.7616 16.4036 13.86 16.591 13.7397 16.8288C13.6723 16.9547 13.5998 17.0435 13.47 17.1473C13.3141 17.2724 13.009 17.417 12.5906 17.1513C12.3655 17.0085 12.3521 16.9606 12.0415 17.0009C11.8196 17.0298 11.7314 16.8057 11.8111 16.6192C11.8908 16.4334 12.2186 16.2829 12.6262 16.522C12.8093 16.6298 13.0954 16.8571 13.3456 16.6558C13.4492 16.5725 13.5114 16.517 13.6553 16.3504C13.6617 16.3438 13.6703 16.3399 13.6795 16.3394C13.6887 16.3389 13.6977 16.3419 13.7047 16.3478Z" fill="white"/>
<path fill-rule="evenodd" clip-rule="evenodd" d="M19.2341 17.2063C19.6932 17.2063 20.1468 17.2677 20.5745 17.3661C21.7006 15.6284 22.3545 13.5558 22.3545 11.3306C22.3545 5.19785 17.3879 0.226562 11.2608 0.226562C5.13367 0.226562 0.166504 5.19785 0.166504 11.3306C0.166504 12.5719 0.37001 13.7655 0.745732 14.8801L1.51703 14.8797C2.20113 14.8797 2.83669 14.7149 3.37033 14.4373C3.50519 14.3678 3.65704 14.3249 3.81938 14.3249C4.16008 14.3249 4.45226 14.4578 4.63799 14.7629C4.79851 15.0396 4.94802 15.2026 5.13168 15.3196C5.28985 15.4206 5.50653 15.5045 5.81569 15.4898C5.96104 15.4829 6.1824 15.4481 6.23787 15.2959C6.30123 15.1212 6.2221 14.9897 6.00923 14.9013C5.7333 14.7857 5.64209 14.6213 5.50525 14.3746C5.49341 14.3533 5.48124 14.3314 5.46857 14.3088C5.41683 14.217 5.34573 14.1393 5.27138 14.058C5.11618 13.8884 4.94688 13.7033 4.91032 13.3427C4.85693 12.8174 5.26801 12.1573 6.07935 12.3677C6.63332 12.5111 7.00204 13.1658 7.1607 13.4476C7.17009 13.4643 7.17875 13.4796 7.18667 13.4935C7.26138 13.6241 7.5233 13.777 7.73582 13.5821C7.94834 13.3872 8.14335 13.3872 8.30274 13.6359C8.43916 13.8474 9.43702 15.1787 10.5175 15.2137C11.1763 15.2348 11.6503 15.1412 12.0275 15.0667C12.279 15.017 12.4874 14.9759 12.6788 14.9829C12.8835 14.9907 13.0235 15.0565 13.1451 15.1137C13.2233 15.1505 13.2939 15.1837 13.3692 15.1956C13.5419 15.2229 13.6889 15.1561 13.8413 15.0869C13.9862 15.0211 14.136 14.953 14.3175 14.9615C14.4574 14.9685 14.6032 15.0158 14.753 15.0644C14.9253 15.1202 15.1029 15.1778 15.2829 15.1778C15.4398 15.1778 15.6776 15.0894 15.8858 15.0121C16.1245 14.9234 16.3244 14.8491 16.3191 14.9388C16.3081 15.1274 16.2116 15.4089 16.1286 15.6509C16.0812 15.7891 16.0383 15.9145 16.0181 16.0024C16.0035 16.0655 15.9992 16.1623 15.9942 16.2759C15.9858 16.4646 15.9754 16.6996 15.9124 16.9024C15.8333 17.1951 15.5847 17.5555 15.4715 17.7197C15.456 17.7422 15.443 17.761 15.4333 17.7755C15.3203 17.9453 15.2201 18.0655 15.1257 18.1787C14.9932 18.3378 14.872 18.4832 14.7426 18.7331C14.5478 19.1092 14.2546 19.4633 14.0862 19.6667C14.0402 19.7222 14.0035 19.7665 13.9806 19.797C13.8445 19.9785 14.7496 19.7912 15.0701 19.4867C15.1325 19.4274 15.2056 19.3409 15.2903 19.2407C15.576 18.9027 15.9931 18.4091 16.576 18.2811C17.0855 18.1688 17.1879 17.9728 17.1258 17.7919C17.1161 17.7708 17.1096 17.7449 17.1096 17.72C17.1099 17.6869 17.1194 17.6546 17.1369 17.6266C17.1544 17.5986 17.1794 17.576 17.209 17.5613C17.7359 17.3422 18.4497 17.2063 19.2341 17.2063ZM16.5628 9.57332C17.2566 9.21678 17.4124 8.74487 17.5219 8.37611C19.4067 8.80161 20.5243 9.78394 20.2829 11.1121C19.7518 14.0347 14.9735 15.0176 10.3274 13.6095C5.90038 12.268 2.01219 9.59431 2.46176 8.02903C2.72368 7.11704 4.16824 6.7278 6.09305 6.93617C5.8014 7.53161 5.82298 8.23349 7.09732 9.0131C8.6549 9.8988 11.2876 10.6545 12 10.5806C12.2651 10.5533 12.5042 10.4213 12.2651 10.2618C12.0263 10.1025 11.814 9.78342 11.6812 9.22554L11.6789 9.21568C11.6054 8.90495 11.5045 8.47824 9.8495 8.16253C6.25911 7.47817 6.39813 6.46192 6.50439 5.87776C6.50439 5.87776 6.82291 4.44277 6.95578 3.9378C7.0883 3.43293 7.431 2.27397 9.74324 2.79533C10.8684 3.04901 11.557 2.82327 11.9663 2.68911C12.043 2.66394 12.11 2.64199 12.1681 2.62704C13.1681 2.37018 14.2743 2.54723 14.885 3.17607C15.5174 3.82763 16.388 5.83629 16.8052 7.33912C17.0171 8.10293 16.9614 8.46901 16.8548 8.72622L16.8498 8.73782C16.7764 8.9075 16.7261 9.02383 16.47 9.4602C16.4233 9.54001 16.4619 9.62476 16.5628 9.57332ZM8.74365 6.00111C8.98364 5.74538 9.11677 5.60693 10.3984 5.51402C11.0088 5.46987 11.0711 5.32786 11.0532 5.17761C11.0325 5.00142 10.6638 4.79661 10.1155 4.79661C9.79055 4.79661 9.52083 4.82209 9.28438 4.84443C9.12697 4.8593 8.98431 4.87278 8.84991 4.87642C8.51354 4.88518 8.25465 4.63795 8.13313 4.48692C8.03329 4.3627 7.71477 4.2429 7.54255 4.64177C7.36739 5.04497 7.69171 5.47655 7.95944 5.53302C7.95944 5.53302 8.40528 6.36198 8.74365 6.00111ZM11.7387 3.39519C11.7407 3.39515 11.7426 3.39495 11.7446 3.39459C11.8155 3.38348 11.8891 3.37385 11.9644 3.36631C12.6522 3.297 13.2326 3.41159 13.2606 3.62169C13.2816 3.78036 12.9824 3.94839 12.5387 4.05118C12.5279 4.05344 12.5183 4.05926 12.5113 4.0677C12.5043 4.07614 12.5003 4.08671 12.5001 4.09768C12.5003 4.10859 12.5042 4.11911 12.5111 4.12757C12.5179 4.13604 12.5274 4.14197 12.5381 4.14444C12.7241 4.19822 12.94 4.23153 13.1704 4.23674C13.8816 4.25279 14.4646 3.99601 14.4731 3.66316C14.4816 3.33031 13.9122 3.04751 13.2011 3.03137L13.2003 3.03136C13.1793 3.03111 13.1585 3.03085 13.1377 3.03085C13.0137 3.03209 12.8898 3.0391 12.7664 3.05184C12.3422 3.09513 11.9714 3.1994 11.723 3.33091C11.7109 3.33621 11.7028 3.34792 11.7028 3.36128C11.7028 3.37975 11.7188 3.39519 11.7387 3.39519Z" fill="white"/>
</svg>
